<?xml version="1.0" encoding="utf-8"?>
<!-- Generator: Adobe Illustrator 24.0.1, SVG Export Plug-In . SVG Version: 6.00 Build 0)  -->
<svg version="1.1" id="图层_1" xmlns="http://www.w3.org/2000/svg" xmlns:xlink="http://www.w3.org/1999/xlink" x="0px" y="0px"
	 viewBox="0 0 379.61 112.51" style="enable-background:new 0 0 379.61 112.51;" xml:space="preserve">
<style type="text/css">
	.st0{fill:#0098F0;}
	.st1{fill:#77BE00;}
	.st2{fill:#F5B40A;}
	.st3{fill:#303C42;}
	.st4{fill:#FFFFFF;}
</style>
<g>
	<path class="st0" d="M46.38,0.01c-5.91-0.35-11.05,7.28-11.64,17.07c-0.58,9.74,3.71,17.97,9.54,18.32
		c0.13,0.01,0.27,0.01,0.4,0.01c5.73,0,10.67-7.49,11.23-17.06C56.47,8.6,52.21,0.38,46.38,0.01z"/>
	<path class="st1" d="M41.01,45.58c-0.68-4.17-6.62-6.86-15.12-6.86c-2.25,0-4.59,0.2-6.94,0.59C7.66,41.19-0.82,47.05,0.06,52.39
		c0.68,4.11,6.76,6.87,15.13,6.87c2.26,0,4.6-0.2,6.95-0.59c5.4-0.9,10.32-2.73,13.87-5.13C39.68,51.05,41.46,48.23,41.01,45.58z"/>
	<path class="st2" d="M93.15,31.29c-1.18-2.74-4.67-4.3-9.55-4.3c-4.18,0-9.07,1.13-13.78,3.18C59.26,34.81,52.51,42.86,54.79,48.1
		c1.18,2.74,4.66,4.3,9.54,4.3h0.01c4.18,0,9.07-1.12,13.78-3.18C88.68,44.59,95.43,36.54,93.15,31.29z"/>
	<path class="st0" d="M32.13,65.32c-0.54-0.29-1.14-0.44-1.76-0.44c-4.51,0-10,8.18-13.06,19.47c-3.55,13.08-2.7,25.26,1.93,27.72
		c0.54,0.3,1.14,0.44,1.76,0.44c4.52,0,10.01-8.19,13.06-19.47C37.62,79.96,36.77,67.78,32.13,65.32z"/>
	<path class="st0" d="M60.05,61.02c-6.22,0-11.29,6.83-11.29,15.22c0,8.39,5.07,15.19,11.29,15.19c6.25,0,11.32-6.81,11.32-15.19
		C71.37,67.86,66.29,61.02,60.05,61.02z"/>
	<path class="st3" d="M151.85,27.08c-1.19,0-2.78-0.02-4.73-0.06l-0.88-0.01l-2.44,4.13l-14.26,22.28
		c-2.29-4.34-4.73-8.78-7.24-13.24c-2.95-5.23-5.15-9.35-6.52-12.29l-0.41-0.88l-0.97,0.01c-2.05,0.03-3.55,0.06-4.49,0.06
		L102.49,27l20.82,36.45c-0.41,8.82-1.02,17.72-1.8,26.44l-0.14,1.68l1.7-0.04c1.94-0.06,3.49-0.1,4.36-0.1
		c0.87,0,2.42,0.04,4.37,0.1l1.53,0.04l0.1-7.34l0.88-20.12l5.38-8.16L159.2,27L151.85,27.08z"/>
	<path class="st3" d="M183.75,48.33c-1.73-1.7-3.91-2.97-6.48-3.79c-2.49-0.8-5.13-1.2-7.86-1.2c-5.26,0-9.7,1.11-13.18,3.34
		c-3.49,2.23-6.13,5.31-7.86,9.19c-1.7,3.8-2.56,7.96-2.56,12.39c0,3.18,0.47,6.23,1.39,9.1c0.95,2.94,2.53,5.58,4.69,7.83
		c2.19,2.3,4.85,3.94,7.91,4.85c2.94,0.89,6.31,1.35,9.99,1.35c2.04,0,4.12-0.12,6.16-0.38c2.06-0.24,4.51-0.72,7.28-1.42l0.99-0.24
		l0.13-1.01c0.32-2.3,0.65-4.27,1-5.84l0.56-2.62l-2.53,0.88c-5.07,1.75-9.39,2.64-12.87,2.64c-2.92,0-5.51-0.6-7.73-1.76
		c-2.17-1.15-3.77-2.8-4.88-5.05c-1.14-2.28-1.71-4.83-1.71-7.56c0-0.52,0.02-1.22,0.08-2.07h32.33l0.21-1.24
		c0.2-1.05,0.29-2.14,0.29-3.25c0-2.83-0.47-5.49-1.39-7.91C186.8,52.1,185.47,49.99,183.75,48.33z M157.1,60.41
		c0.21-0.76,0.42-1.42,0.62-1.96c0.34-0.87,0.86-1.78,1.56-2.74c0.69-0.92,1.52-1.76,2.5-2.46c0.99-0.7,2.15-1.25,3.45-1.66
		c2.49-0.77,5.55-0.82,7.91-0.07c1.09,0.34,2.03,0.85,2.8,1.51c0.76,0.65,1.37,1.42,1.82,2.3c0.47,0.93,0.79,1.83,0.97,2.7
		c0.12,0.6,0.22,1.4,0.26,2.37H157.1z"/>
	<path class="st3" d="M230.11,46.6c-1.64-1.17-3.7-2.02-6.12-2.53c-4.44-0.94-9.66-0.94-15.02-0.23c-2.56,0.33-5.61,0.95-9.04,1.84
		l-1.01,0.26l-0.12,1.03c-0.28,2.46-0.55,4.22-0.79,5.4l-0.57,2.72l2.59-1c2.06-0.81,3.78-1.42,5.14-1.81
		c1.32-0.4,2.94-0.74,4.83-1.03c3.81-0.59,7.64-0.59,10.23,0.12c1.2,0.32,2.12,0.85,2.84,1.65c0.65,0.71,0.96,1.54,0.96,2.55
		c0,0.4-0.07,0.81-0.21,1.21c-0.14,0.41-0.38,0.84-0.7,1.26c-0.34,0.43-0.73,0.81-1.11,1.12c-0.42,0.3-0.91,0.58-1.46,0.81
		c-0.64,0.27-1.4,0.55-2.24,0.84c-0.86,0.3-1.9,0.56-3.07,0.84c-3.99,0.96-6.79,1.71-8.56,2.26c-1.81,0.57-3.4,1.15-4.78,1.74
		c-1.41,0.61-2.78,1.4-4.07,2.34c-1.36,0.98-2.38,1.96-3.11,2.95c-0.75,1.01-1.34,2.13-1.76,3.34c-0.44,1.23-0.67,2.59-0.67,4.03
		c0,2.45,0.61,4.74,1.82,6.83c1.25,2.14,3.14,3.75,5.61,4.79c2.39,0.99,5.55,1.47,9.69,1.47c1.2,0,2.5-0.05,3.82-0.16
		c1.36-0.11,3.08-0.35,5.23-0.76l0.98-0.19l0.21-0.96c0.49-2.2,0.94-3.85,1.31-4.89l1.03-2.86l-2.9,0.91
		c-2.1,0.66-3.77,1.07-4.97,1.22c-3.16,0.41-6.06,0.29-8.05-0.34c-1.1-0.35-1.98-0.97-2.71-1.88c-0.69-0.86-1.04-1.86-1.04-3.05
		c0-0.81,0.16-1.55,0.44-2.26c0.24-0.55,0.66-1.13,1.28-1.73c0.67-0.63,1.51-1.24,2.53-1.8c1.05-0.57,2.53-1.16,4.41-1.77
		c0.91-0.31,2.48-0.77,4.53-1.34c2.15-0.59,3.64-1.01,4.45-1.27c0.83-0.27,1.56-0.54,2.21-0.82c0.6-0.25,1.15-0.54,1.67-0.85
		l-0.5,10.61l-1.03,13.31l1.67-0.06c1.66-0.06,2.94-0.08,3.84-0.08c0.94,0,2.18,0.02,3.69,0.08l1.56,0.06v-1.57
		c0-3.05,0.08-6.55,0.24-10.41c0.14-3.85,0.36-8.02,0.67-12.76c0.29-4.6,0.44-7.95,0.44-9.95c0-1.72-0.27-3.36-0.81-4.89
		C233.01,49.28,231.83,47.82,230.11,46.6z"/>
	<path class="st3" d="M256.4,52.22c1.27-0.39,2.69-0.59,4.22-0.59c2.88,0,5.86,0.63,8.84,1.85l2.3,0.95l-0.23-2.48
		c-0.18-1.86-0.31-3.88-0.44-6.02l-0.06-1.17l-1.15-0.23c-7.71-1.51-14.39-1.7-19.25,0.17c-2.45,0.95-4.36,2.42-5.69,4.38
		c-1.31,1.95-1.97,4-1.97,6.12c0,1.3,0.23,2.6,0.68,3.86c0.44,1.26,1.15,2.52,2.09,3.72c0.88,1.17,1.97,2.32,3.21,3.41
		c1.18,1.04,2.9,2.47,5.24,4.36c2.77,2.24,3.95,3.25,4.44,3.7c0.63,0.59,1.12,1.11,1.41,1.55c0.28,0.43,0.5,0.88,0.64,1.32
		c0.14,0.45,0.21,0.91,0.21,1.34c0,0.78-0.23,1.53-0.76,2.29c-0.49,0.74-1.23,1.3-2.27,1.7c-1.16,0.43-2.62,0.65-4.36,0.65
		c-3.47,0-7.34-0.91-11.48-2.72l-2.43-1.06l0.33,2.63c0.32,2.45,0.33,2.97,0.33,3.07l0.34,4.32l1.05,0.27
		c1.79,0.44,3.22,0.78,4.37,0.98c1.2,0.23,2.66,0.42,4.33,0.56c1.72,0.18,3.18,0.25,4.44,0.25c3.08,0,5.9-0.51,8.4-1.51
		c2.59-1.05,4.59-2.56,5.93-4.51c1.35-1.95,2.03-4.1,2.03-6.38c0-1.17-0.17-2.33-0.51-3.44c-0.33-1.12-0.88-2.25-1.61-3.35
		c-0.71-1.08-1.56-2.13-2.51-3.12c-0.97-0.99-2.66-2.46-5.2-4.47c-2.4-1.92-4.04-3.26-4.87-3.97c-0.74-0.64-1.39-1.3-1.91-1.95
		c-0.49-0.6-0.81-1.13-0.98-1.6c-0.16-0.45-0.25-0.94-0.25-1.43c0-0.73,0.24-1.37,0.69-1.98C254.47,53.05,255.28,52.56,256.4,52.22z
		"/>
	<path class="st3" d="M289.44,40.7l0.11-1.98l-1.94,0.43c-1.8,0.42-3.97,0.85-6.68,1.32l-1.19,0.22l-0.06,1.2
		c-0.14,3.44-0.28,5.94-0.43,7.5c-0.07,1.56-0.22,2.82-0.32,3.84l-1.14,18.41c-0.29,4.77-0.39,6.99-0.43,7.68
		c-0.03,0.75-0.04,1.29-0.04,1.58c0,2.51,0.49,4.55,1.47,6.09c0.99,1.57,2.44,2.72,4.28,3.42c1.76,0.65,3.93,0.99,6.65,0.99
		c1.05,0,2.19-0.06,3.38-0.17c1.19-0.12,2.76-0.38,4.77-0.81l1-0.22l0.17-1c0.36-2.06,0.7-3.74,1-4.99l0.59-2.41l-2.41,0.58
		c-2.47,0.6-3.64,0.81-4.16,0.88c-1.7,0.22-3.09,0.25-4.43-0.35c-0.62-0.27-1.05-0.7-1.36-1.34c-0.25-0.51-0.55-1.56-0.55-3.59
		l1.11-22.3h11.83l0.02-1.47c0.04-1.46,0.12-3.02,0.25-4.61l0.15-1.64h-11.93C289.19,46.05,289.29,43.63,289.44,40.7z"/>
	<path class="st3" d="M341.31,46.63c-1.63-1.18-3.69-2.03-6.11-2.53c-4.43-0.94-9.63-0.94-15.02-0.23
		c-2.58,0.34-5.63,0.96-9.06,1.85l-0.99,0.27L310,47c-0.28,2.41-0.55,4.22-0.78,5.39l-0.57,2.72l2.59-1
		c2.11-0.83,3.79-1.42,5.13-1.81c1.33-0.39,2.96-0.73,4.83-1.02c3.83-0.59,7.64-0.59,10.23,0.11c1.19,0.33,2.12,0.86,2.84,1.65
		c0.65,0.71,0.96,1.54,0.96,2.56c0,0.4-0.05,0.8-0.2,1.2c-0.15,0.42-0.38,0.84-0.71,1.26c-0.34,0.44-0.71,0.82-1.12,1.12
		c-0.39,0.3-0.9,0.58-1.46,0.82c-0.67,0.28-1.43,0.56-2.24,0.84c-0.85,0.28-1.87,0.57-3.06,0.84c-4,0.96-6.8,1.7-8.58,2.25
		c-1.8,0.57-3.4,1.16-4.77,1.74c-1.4,0.61-2.78,1.4-4.06,2.33c-1.33,0.97-2.38,1.97-3.11,2.97c-0.75,0.99-1.35,2.11-1.77,3.34
		c-0.43,1.23-0.65,2.59-0.65,4.03c0,2.44,0.61,4.73,1.82,6.83c1.24,2.14,3.14,3.75,5.61,4.78c2.39,1,5.56,1.47,9.68,1.47
		c1.23,0,2.52-0.04,3.82-0.14c1.37-0.11,3.09-0.35,5.24-0.76l0.97-0.19l0.22-0.97c0.49-2.19,0.93-3.84,1.31-4.88l1.02-2.86
		l-2.89,0.91c-2.11,0.66-3.77,1.07-4.98,1.23c-3.13,0.4-6.05,0.29-8.06-0.35c-1.09-0.35-1.98-0.96-2.7-1.87
		c-0.7-0.86-1.04-1.86-1.04-3.05c0-0.8,0.14-1.55,0.42-2.27c0.24-0.54,0.67-1.12,1.3-1.72c0.65-0.64,1.5-1.25,2.53-1.81
		c1.05-0.58,2.52-1.17,4.38-1.77c0.66-0.22,1.98-0.63,4.54-1.34c2.11-0.58,3.64-1.02,4.46-1.27c0.83-0.27,1.56-0.54,2.19-0.83
		c0.61-0.26,1.16-0.54,1.68-0.84l-0.5,10.61l-1.05,13.3l1.7-0.06c1.64-0.05,2.94-0.09,3.82-0.09c0.95,0,2.19,0.03,3.71,0.09
		l1.55,0.06v-1.56c0-3.15,0.08-6.65,0.23-10.41c0.15-3.85,0.37-8.01,0.68-12.76c0.29-4.61,0.44-7.97,0.44-9.95
		c0-1.73-0.28-3.37-0.8-4.89C344.2,49.31,343.04,47.85,341.31,46.63z"/>
	<path class="st3" d="M379.47,51.95c-0.17-2.27-0.28-4.36-0.31-6.21l-0.02-1.16l-1.13-0.28c-2.75-0.68-5.65-0.6-8.28,0.07
		c-1.41,0.35-2.72,0.86-3.85,1.51c-1.12,0.65-2.15,1.46-3.04,2.43l0.17-3.52l-1.61,0.03c-1.32,0.02-2.52,0.04-3.6,0.04
		c-0.93,0-2.11-0.02-3.54-0.04l-1.56-0.03l0.06,5.45c0,9.69-0.51,22.84-1.52,39.11L351.15,91l1.67-0.06c2-0.07,3.18-0.08,3.82-0.08
		c1.01,0,2.23,0.02,3.65,0.08l1.58,0.06v-4.42c0-4.29,0.05-8.37,0.16-12.13c0.17-5.16,0.39-8.76,0.68-10.68
		c0.28-1.83,0.67-3.33,1.18-4.47c0.61-1.39,1.41-2.6,2.34-3.59c0.91-0.96,1.94-1.68,3.07-2.16c2.12-0.88,4.7-1.03,8.26-0.05
		l2.06,0.56L379.47,51.95z"/>
</g>
</svg>
