<?xml version="1.0" standalone="no"?><!DOCTYPE svg PUBLIC "-//W3C//DTD SVG 1.1//EN" "http://www.w3.org/Graphics/SVG/1.1/DTD/svg11.dtd"><svg t="1749792749212" class="icon" viewBox="0 0 1024 1024" version="1.1" xmlns="http://www.w3.org/2000/svg" p-id="24037" xmlns:xlink="http://www.w3.org/1999/xlink" width="200" height="200"><path d="M469.333333 780.8H384c-54.101333 0-98.133333-44.032-98.133333-98.133333V341.333333c0-54.101333 44.032-98.133333 98.133333-98.133333h256c54.101333 0 98.133333 44.032 98.133333 98.133333v298.666667c0 7.082667-5.717333 12.8-12.8 12.8s-12.8-5.717333-12.8-12.8V341.333333c0-40.021333-32.512-72.533333-72.533333-72.533333H384c-40.021333 0-72.533333 32.512-72.533333 72.533333v341.333334c0 40.021333 32.512 72.533333 72.533333 72.533333h85.333333c7.082667 0 12.8 5.717333 12.8 12.8s-5.717333 12.8-12.8 12.8z" fill="#333333" p-id="24038"></path><path d="M597.333333 780.8c-1.621333 0-3.328-0.341333-4.864-0.938667-4.778667-1.962667-7.936-6.656-7.936-11.861333V682.666667c0-30.549333 24.917333-55.466667 55.466667-55.466667h85.333333c5.205333 0 9.813333 3.157333 11.861334 7.936s0.853333 10.325333-2.816 13.909333l-128 128c-2.474667 2.474667-5.717333 3.754667-9.045334 3.754667z m42.666667-128c-16.469333 0-29.866667 13.397333-29.866667 29.866667v54.442666l84.309334-84.309333H640z" fill="#333333" p-id="24039"></path><path d="M554.666667 376.234667H384c-7.082667 0-12.8-5.717333-12.8-12.8s5.717333-12.8 12.8-12.8h170.666667c7.082667 0 12.8 5.717333 12.8 12.8s-5.717333 12.8-12.8 12.8zM512 504.234667H384c-7.082667 0-12.8-5.717333-12.8-12.8s5.717333-12.8 12.8-12.8h128c7.082667 0 12.8 5.717333 12.8 12.8s-5.717333 12.8-12.8 12.8zM469.333333 632.234667H384c-7.082667 0-12.8-5.717333-12.8-12.8s5.717333-12.8 12.8-12.8h85.333333c7.082667 0 12.8 5.717333 12.8 12.8s-5.717333 12.8-12.8 12.8z" fill="#0098F0" p-id="24040"></path></svg>