<?xml version="1.0" standalone="no"?><!DOCTYPE svg PUBLIC "-//W3C//DTD SVG 1.1//EN" "http://www.w3.org/Graphics/SVG/1.1/DTD/svg11.dtd"><svg t="1750035158628" class="icon" viewBox="0 0 1024 1024" version="1.1" xmlns="http://www.w3.org/2000/svg" p-id="19739" xmlns:xlink="http://www.w3.org/1999/xlink" width="200" height="200"><path d="M512.426667 523.093333a12.8 12.8 0 0 1-12.8-12.8V256a12.8 12.8 0 0 1 25.6 0v254.293333a12.8 12.8 0 0 1-12.8 12.8z" fill="#ffffff" p-id="19740"></path><path d="M512 523.093333a12.885333 12.885333 0 0 1-9.045333-3.754666l-72.618667-72.704a12.714667 12.714667 0 0 1 0-18.090667 12.885333 12.885333 0 0 1 18.090667 0l72.618666 72.704a12.714667 12.714667 0 0 1 0 18.090667 12.885333 12.885333 0 0 1-9.045333 3.754666z" fill="#ffffff" p-id="19741"></path><path d="M512 523.093333a12.885333 12.885333 0 0 1-9.045333-3.754666 12.714667 12.714667 0 0 1 0-18.090667l72.618666-72.704a12.885333 12.885333 0 0 1 18.090667 0 12.714667 12.714667 0 0 1 0 18.090667l-72.618667 72.704a12.885333 12.885333 0 0 1-9.045333 3.754666z" fill="#ffffff" p-id="19742"></path><path d="M679.68 780.8h-335.36A98.218667 98.218667 0 0 1 246.186667 682.666667v-28.330667a98.218667 98.218667 0 0 1 98.133333-98.133333h76.8a12.8 12.8 0 0 1 0 25.6h-76.8a72.618667 72.618667 0 0 0-72.533333 72.533333V682.666667a72.618667 72.618667 0 0 0 72.533333 72.533333h335.36a72.618667 72.618667 0 0 0 72.533333-72.533333v-28.330667a72.618667 72.618667 0 0 0-72.533333-72.533333h-76.8a12.8 12.8 0 1 1 0-25.6h76.8a98.218667 98.218667 0 0 1 98.133333 98.133333V682.666667a98.218667 98.218667 0 0 1-98.133333 98.133333z" fill="#ffffff" p-id="19743"></path><path d="M258.986667 663.296a12.8 12.8 0 0 1-12.8-12.8v-51.2a182.101333 182.101333 0 0 1 11.178666-62.976l41.813334-114.517333a98.474667 98.474667 0 0 1 92.16-64.512h29.866666a12.8 12.8 0 0 1 0 25.6h-29.866666a72.874667 72.874667 0 0 0-68.266667 47.701333L281.6 545.024a158.634667 158.634667 0 0 0-9.557333 54.186667v51.2a12.8 12.8 0 0 1-13.056 12.885333zM765.013333 663.296a12.8 12.8 0 0 1-12.8-12.8v-51.2A158.634667 158.634667 0 0 0 742.4 545.024l-41.642667-114.517333a72.618667 72.618667 0 0 0-68.266666-47.701334h-29.866667a12.8 12.8 0 0 1 0-25.6h29.866667a98.474667 98.474667 0 0 1 92.16 64.512l41.813333 114.517334a182.101333 182.101333 0 0 1 11.178667 62.976v51.2a12.8 12.8 0 0 1-12.629334 12.885333zM588.288 640H435.712a27.306667 27.306667 0 0 1-27.306667-27.306667v-43.690666a12.8 12.8 0 0 1 25.6 0v43.605333a1.706667 1.706667 0 0 0 1.706667 1.706667h152.576a1.706667 1.706667 0 0 0 1.706667-1.706667v-43.605333a12.8 12.8 0 0 1 25.6 0v43.605333a27.306667 27.306667 0 0 1-27.306667 27.392z" fill="#ffffff" p-id="19744"></path></svg>